<svg xmlns="http://www.w3.org/2000/svg" viewBox="0 0 200 260" fill="none">
  <!-- Talisman Stacked Logo (splash screen, about page) -->
  
  <!-- Shield Icon (centered, large) -->
  <g transform="translate(30, 0)">
    <path d="M70 0 L135 26 L135 80 Q135 136 70 160 Q5 136 5 80 L5 26 Z" fill="#2D6A4F"/>
    <path d="M70 14 L124 36 L124 80 Q124 126 70 146 Q16 126 16 80 L16 36 Z" fill="#1B4332"/>
    <path d="M70 36 L102 72 L70 108 L38 72 Z" fill="#40916C"/>
    <path d="M70 52 L76 66 L90 66 L79 76 L83 90 L70 82 L57 90 L61 76 L50 66 L64 66 Z" fill="#B7E4C7"/>
  </g>
  
  <!-- Wordmark (centered below) -->
  <text x="100" y="200" text-anchor="middle" font-family="'DM Sans', sans-serif" font-weight="900" font-size="36" fill="#2D6A4F">Talisman</text>
  <text x="100" y="225" text-anchor="middle" font-family="'DM Sans', sans-serif" font-weight="500" font-size="10" fill="#52B788" letter-spacing="3">BIZNIS ASISTAN POU MACHANN</text>
</svg>
